<svg xmlns="http://www.w3.org/2000/svg" viewBox="0 0 720 530" role="img" aria-label="Building regulations section drawing"><defs>
<linearGradient id="gbr" x1="0" x2="1"><stop offset="0" stop-color="#dbeafe"/><stop offset="1" stop-color="#f8fafc"/></linearGradient>
<linearGradient id="sbr" x1="0" y1="0" x2="0" y2="1"><stop offset="0" stop-color="#1e293b"/><stop offset="1" stop-color="#0f172a"/></linearGradient>
</defs><title>Building regulations section drawing</title><rect width="720" height="530" fill="#f8fafc"/><g opacity=".30" stroke="#94a3b8" stroke-width="1"><path d="M48 0V530M96 0V530M144 0V530M192 0V530M240 0V530M288 0V530M336 0V530M384 0V530M432 0V530M480 0V530M528 0V530M576 0V530M624 0V530M672 0V530"/><path d="M0 48H720M0 96H720M0 144H720M0 192H720M0 240H720M0 288H720M0 336H720M0 384H720M0 432H720M0 480H720M0 528H720"/></g><path d="M100 420V184L360.0 92L620 184V420Z" fill="#fff" stroke="#0f172a" stroke-width="9"/><rect x="100" y="300" width="520" height="16" fill="#0f172a"/><rect x="100" y="200" width="520" height="16" fill="#0f172a"/><rect x="100" y="404" width="520" height="18" fill="#0f172a"/><path d="M140 188L360.0 114L580 188" fill="none" stroke="#2563eb" stroke-width="5"/><path d="M160 196 v-26" stroke="#94a3b8" stroke-width="3" opacity=".8"/><path d="M200 196 v-26" stroke="#94a3b8" stroke-width="3" opacity=".8"/><path d="M240 196 v-26" stroke="#94a3b8" stroke-width="3" opacity=".8"/><path d="M280 196 v-26" stroke="#94a3b8" stroke-width="3" opacity=".8"/><path d="M320 196 v-26" stroke="#94a3b8" stroke-width="3" opacity=".8"/><path d="M360 196 v-26" stroke="#94a3b8" stroke-width="3" opacity=".8"/><path d="M400 196 v-26" stroke="#94a3b8" stroke-width="3" opacity=".8"/><path d="M440 196 v-26" stroke="#94a3b8" stroke-width="3" opacity=".8"/><path d="M480 196 v-26" stroke="#94a3b8" stroke-width="3" opacity=".8"/><path d="M520 196 v-26" stroke="#94a3b8" stroke-width="3" opacity=".8"/><path d="M560 196 v-26" stroke="#94a3b8" stroke-width="3" opacity=".8"/><rect x="130" y="228" width="150" height="72" fill="url(#gbr)" opacity=".8"/><rect x="306" y="228" width="150" height="72" fill="#e2e8f0" opacity=".7"/><rect x="130" y="330" width="200" height="74" fill="url(#gbr)" opacity=".8"/><rect x="354" y="330" width="180" height="74" fill="#e2e8f0" opacity=".7"/><path d="M480 300 h18 v14" fill="none" stroke="#0f172a" stroke-width="4"/><path d="M498 286 h18 v14" fill="none" stroke="#0f172a" stroke-width="4"/><path d="M516 272 h18 v14" fill="none" stroke="#0f172a" stroke-width="4"/><path d="M534 258 h18 v14" fill="none" stroke="#0f172a" stroke-width="4"/><path d="M552 244 h18 v14" fill="none" stroke="#0f172a" stroke-width="4"/><path d="M570 230 h18 v14" fill="none" stroke="#0f172a" stroke-width="4"/><path d="M588 216 h18 v14" fill="none" stroke="#0f172a" stroke-width="4"/><path d="M636 404 h34" stroke="#2563eb" stroke-width="3"/><circle cx="670" cy="404" r="5" fill="#c8a96a"/><path d="M636 300 h34" stroke="#2563eb" stroke-width="3"/><circle cx="670" cy="300" r="5" fill="#c8a96a"/><path d="M636 200 h34" stroke="#2563eb" stroke-width="3"/><circle cx="670" cy="200" r="5" fill="#c8a96a"/><g fill="none" stroke="#2563eb" stroke-width="2" opacity=".7"><path d="M56 478H664M56 46H664"/><path d="M56 490V466M664 490V466M56 34V58M664 34V58"/><path d="M76 74h568M76 452h568" stroke-dasharray="8 8" opacity=".55"/></g><g fill="#c8a96a"><circle cx="56" cy="46" r="5"/><circle cx="664" cy="478" r="5"/></g></svg>