<svg xmlns="http://www.w3.org/2000/svg" viewBox="0 0 720 530" role="img" aria-label="Residential street elevation"><defs>
<linearGradient id="gs1" x1="0" x2="1"><stop offset="0" stop-color="#dbeafe"/><stop offset="1" stop-color="#f8fafc"/></linearGradient>
<linearGradient id="ss1" x1="0" y1="0" x2="0" y2="1"><stop offset="0" stop-color="#1e293b"/><stop offset="1" stop-color="#0f172a"/></linearGradient>
</defs><title>Residential street elevation</title><rect width="720" height="530" fill="#f8fafc"/><g opacity=".30" stroke="#94a3b8" stroke-width="1"><path d="M48 0V530M96 0V530M144 0V530M192 0V530M240 0V530M288 0V530M336 0V530M384 0V530M432 0V530M480 0V530M528 0V530M576 0V530M624 0V530M672 0V530"/><path d="M0 48H720M0 96H720M0 144H720M0 192H720M0 240H720M0 288H720M0 336H720M0 384H720M0 432H720M0 480H720M0 528H720"/></g><path d="M40 410V184L102 150L164 184V410Z" fill="#fff" stroke="#0f172a" stroke-width="7"/><rect x="58" y="220" width="40" height="48" fill="url(#gs1)" stroke="#cbd5e1"/><rect x="110" y="220" width="40" height="48" fill="url(#gs1)" stroke="#cbd5e1"/><rect x="62" y="300" width="44" height="76" fill="#e2e8f0" stroke="#cbd5e1"/><rect x="120" y="300" width="34" height="60" fill="url(#gs1)" stroke="#cbd5e1"/><path d="M122 184 v-30 h20 v42" fill="#fff" stroke="#0f172a" stroke-width="6"/><path d="M172 410V210L234 176L296 210V410Z" fill="#fff" stroke="#0f172a" stroke-width="7"/><rect x="190" y="246" width="40" height="48" fill="url(#gs1)" stroke="#cbd5e1"/><rect x="242" y="246" width="40" height="48" fill="url(#gs1)" stroke="#cbd5e1"/><rect x="194" y="326" width="44" height="76" fill="#e2e8f0" stroke="#cbd5e1"/><rect x="252" y="326" width="34" height="60" fill="url(#gs1)" stroke="#cbd5e1"/><path d="M254 210 v-30 h20 v42" fill="#fff" stroke="#0f172a" stroke-width="6"/><path d="M304 410V184L366 150L428 184V410Z" fill="#fff" stroke="#0f172a" stroke-width="7"/><rect x="322" y="220" width="40" height="48" fill="url(#gs1)" stroke="#cbd5e1"/><rect x="374" y="220" width="40" height="48" fill="url(#gs1)" stroke="#cbd5e1"/><rect x="326" y="300" width="44" height="76" fill="#e2e8f0" stroke="#cbd5e1"/><rect x="384" y="300" width="34" height="60" fill="url(#gs1)" stroke="#cbd5e1"/><path d="M386 184 v-30 h20 v42" fill="#fff" stroke="#0f172a" stroke-width="6"/><path d="M436 410V210L498 176L560 210V410Z" fill="#fff" stroke="#0f172a" stroke-width="7"/><rect x="454" y="246" width="40" height="48" fill="url(#gs1)" stroke="#cbd5e1"/><rect x="506" y="246" width="40" height="48" fill="url(#gs1)" stroke="#cbd5e1"/><rect x="458" y="326" width="44" height="76" fill="#e2e8f0" stroke="#cbd5e1"/><rect x="516" y="326" width="34" height="60" fill="url(#gs1)" stroke="#cbd5e1"/><path d="M518 210 v-30 h20 v42" fill="#fff" stroke="#0f172a" stroke-width="6"/><path d="M568 410V184L630 150L692 184V410Z" fill="#fff" stroke="#0f172a" stroke-width="7"/><rect x="586" y="220" width="40" height="48" fill="url(#gs1)" stroke="#cbd5e1"/><rect x="638" y="220" width="40" height="48" fill="url(#gs1)" stroke="#cbd5e1"/><rect x="590" y="300" width="44" height="76" fill="#e2e8f0" stroke="#cbd5e1"/><rect x="648" y="300" width="34" height="60" fill="url(#gs1)" stroke="#cbd5e1"/><path d="M650 184 v-30 h20 v42" fill="#fff" stroke="#0f172a" stroke-width="6"/><rect x="0" y="410" width="720" height="14" fill="#0f172a"/><rect x="0" y="424" width="720" height="106" fill="#e2e8f0"/><path d="M0 478H720" stroke="#fff" stroke-width="6" stroke-dasharray="30 24"/><path d="M40 120H680" stroke="#2563eb" stroke-width="4" stroke-dasharray="12 9" opacity=".8"/><g fill="#c8a96a"><circle cx="40" cy="120" r="6"/><circle cx="680" cy="120" r="6"/></g><g fill="none" stroke="#2563eb" stroke-width="2" opacity=".7"><path d="M56 478H664M56 46H664"/><path d="M56 490V466M664 490V466M56 34V58M664 34V58"/><path d="M76 74h568M76 452h568" stroke-dasharray="8 8" opacity=".55"/></g><g fill="#c8a96a"><circle cx="56" cy="46" r="5"/><circle cx="664" cy="478" r="5"/></g></svg>